# xmcd
#
# Track frame offsets: 
#        225
#        20292
#        36375
#        57515
#        77008
#        94186
#        113583
#        133860
#        149594
#        171363
#        190849
#        211654
#        225836
#        245364
#        264621
#        282036
#        306212
#
# Disc length: 4305 seconds
#
# Revision: 0
# Processed by: cddbd v1.5.2PL0 Copyright (c) Steve Scherf et al.
# Submitted via: ExactAudioCopy v0.99pb5
#
DISCID=eb10ce11
DTITLE=Mariah Carey - World Ballads Collection
DYEAR=1900
DGENRE=R&B
TTITLE0=Can't Let Go
TTITLE1=Without You
TTITLE2=One Sweet Day (with Boys II Men)
TTITLE3=Hero
TTITLE4=My All
TTITLE5=Anytime You Need a Friend
TTITLE6=When You Believe (with W. Houston)
TTITLE7=Vision of Love
TTITLE8=I Don't Wanna Cry
TTITLE9=Endless Love
TTITLE10=If it's Over
TTITLE11=I am Free
TTITLE12=I'll be There
TTITLE13=Always be My Baby
TTITLE14=All I've Ever Wanyed
TTITLE15=Everything Fades
TTITLE16=Never Forget You
EXTD=
EXTT0=
EXTT1=
EXTT2=
EXTT3=
EXTT4=
EXTT5=
EXTT6=
EXTT7=
EXTT8=
EXTT9=
EXTT10=
EXTT11=
EXTT12=
EXTT13=
EXTT14=
EXTT15=
EXTT16=
PLAYORDER=
